<?xml version="1.0" encoding="utf-8"?>
<!-- Generator: Adobe Illustrator 27.0.0, SVG Export Plug-In . SVG Version: 6.00 Build 0)  -->
<svg version="1.1" id="Layer_1" xmlns="http://www.w3.org/2000/svg" xmlns:xlink="http://www.w3.org/1999/xlink" x="0px" y="0px"
	 viewBox="0 0 181.1 58.2" style="enable-background:new 0 0 181.1 58.2;" xml:space="preserve">
<style type="text/css">
	.st0{fill:#151616;}
	.st1{fill:none;stroke:#AEAFB1;}
	.st2{fill:#FFFFFF;}
	.st3{fill:url(#SVGID_1_);}
	.st4{fill:url(#SVGID_00000038373496672317335260000000442757517588100003_);}
	.st5{fill:url(#SVGID_00000182527405228303091100000017732287260578677936_);}
	.st6{fill:url(#SVGID_00000036940674973547211430000016377984298318431418_);}
</style>
<path class="st0" d="M5.2,0h170.8c2.9,0,5.2,2.7,5.2,6.1v46.1c0,3.3-2.3,6.1-5.2,6.1H5.2c-2.9,0-5.2-2.7-5.2-6.1V6.1
	C0,2.7,2.3,0,5.2,0z"/>
<path class="st1" d="M5.2,0h170.8c2.9,0,5.2,2.7,5.2,6.1v46.1c0,3.3-2.3,6.1-5.2,6.1H5.2c-2.9,0-5.2-2.7-5.2-6.1V6.1
	C0,2.7,2.3,0,5.2,0z"/>
<g>
	<path class="st2" d="M72.1,43.4h-3l-1.7-5.2h-5.8l-1.6,5.2h-3l5.7-17.8h3.5L72.1,43.4z M66.9,36l-1.5-4.6c-0.2-0.5-0.5-1.6-0.9-3.3
		h-0.1c-0.2,0.8-0.5,1.9-0.8,3.3L62.2,36H66.9z M86.8,36.8c0,2.2-0.6,3.9-1.8,5.2c-1.1,1.1-2.4,1.7-3.9,1.7c-1.7,0-2.9-0.6-3.7-1.8
		v6.7h-2.8V34.8c0-1.4,0-2.8-0.1-4.2H77l0.2,2h0.1c0.9-1.5,2.4-2.3,4.3-2.3c1.5,0,2.8,0.6,3.8,1.8C86.3,33.3,86.8,34.9,86.8,36.8z
		 M83.9,36.9c0-1.2-0.3-2.3-0.8-3.1c-0.6-0.8-1.4-1.3-2.5-1.3c-0.7,0-1.3,0.2-1.9,0.7c-0.6,0.5-0.9,1.1-1.1,1.8
		c-0.1,0.3-0.1,0.6-0.1,0.9v2.1c0,0.9,0.3,1.7,0.9,2.4c0.6,0.6,1.3,1,2.2,1c1.1,0,1.9-0.4,2.5-1.2C83.6,39.4,83.9,38.3,83.9,36.9z
		 M101.5,36.8c0,2.2-0.6,3.9-1.8,5.2c-1.1,1.1-2.4,1.7-4,1.7c-1.7,0-2.9-0.6-3.7-1.8v6.7h-2.8V34.8c0-1.4,0-2.8-0.1-4.2h2.5l0.2,2
		h0.1c0.9-1.5,2.4-2.3,4.3-2.3c1.5,0,2.8,0.6,3.8,1.8C101,33.3,101.5,34.9,101.5,36.8z M98.6,36.9c0-1.2-0.3-2.3-0.8-3.1
		c-0.6-0.8-1.4-1.3-2.5-1.3c-0.7,0-1.3,0.2-1.9,0.7c-0.6,0.5-0.9,1.1-1.1,1.8c-0.1,0.4-0.1,0.6-0.1,0.9v2.1c0,0.9,0.3,1.7,0.9,2.4
		c0.6,0.6,1.3,1,2.2,1c1.1,0,1.9-0.4,2.5-1.2C98.3,39.4,98.6,38.3,98.6,36.9z M118,38.4c0,1.5-0.5,2.7-1.6,3.7
		c-1.2,1-2.8,1.6-4.8,1.6c-1.9,0-3.4-0.4-4.6-1.1l0.7-2.4c1.2,0.7,2.6,1.1,4.1,1.1c1.1,0,1.9-0.2,2.5-0.7c0.6-0.5,0.9-1.1,0.9-1.9
		c0-0.7-0.3-1.3-0.7-1.8c-0.5-0.5-1.3-0.9-2.5-1.4c-3.1-1.2-4.7-2.9-4.7-5.1c0-1.5,0.6-2.7,1.6-3.6c1.1-0.9,2.6-1.4,4.4-1.4
		c1.6,0,3,0.3,4,0.8l-0.7,2.3c-1-0.5-2.1-0.8-3.4-0.8c-1,0-1.8,0.2-2.4,0.7c-0.5,0.4-0.7,1-0.7,1.6c0,0.7,0.3,1.3,0.8,1.7
		c0.5,0.4,1.3,0.9,2.6,1.4c1.5,0.6,2.7,1.3,3.4,2.2C117.6,36.1,118,37.2,118,38.4z M127.4,32.7h-3.1v6.2c0,1.6,0.6,2.4,1.7,2.4
		c0.5,0,0.9,0,1.3-0.1l0.1,2.2c-0.6,0.2-1.3,0.3-2.2,0.3c-1.1,0-2-0.3-2.6-1c-0.6-0.7-0.9-1.8-0.9-3.5v-6.5h-1.9v-2.1h1.9v-2.3
		l2.8-0.8v3.2h3.1V32.7z M141.6,36.9c0,2-0.6,3.6-1.7,4.8c-1.2,1.3-2.7,1.9-4.7,1.9c-1.9,0-3.4-0.6-4.5-1.9
		c-1.1-1.2-1.7-2.8-1.7-4.7c0-2,0.6-3.6,1.7-4.9c1.2-1.3,2.7-1.9,4.7-1.9c1.9,0,3.4,0.6,4.5,1.9C141,33.4,141.6,34.9,141.6,36.9z
		 M138.6,36.9c0-1.2-0.3-2.2-0.8-3c-0.6-1-1.5-1.5-2.6-1.5c-1.1,0-2,0.5-2.6,1.5c-0.5,0.8-0.8,1.9-0.8,3.1c0,1.2,0.3,2.2,0.8,3
		c0.6,1,1.5,1.5,2.6,1.5c1.1,0,1.9-0.5,2.6-1.6C138.4,39.1,138.6,38.1,138.6,36.9z M150.8,33.1c-0.3-0.1-0.6-0.1-0.9-0.1
		c-1,0-1.8,0.4-2.3,1.1c-0.5,0.7-0.7,1.5-0.7,2.5v6.7h-2.8v-8.8c0-1.3,0-2.7-0.1-4h2.5l0.1,2.5h0.1c0.3-0.8,0.8-1.5,1.4-2
		c0.6-0.4,1.3-0.7,2.1-0.7c0.3,0,0.5,0,0.7,0.1L150.8,33.1z M163.6,36.4c0,0.4,0,0.9-0.1,1.3h-8.5c0,1.3,0.4,2.2,1.2,2.9
		c0.7,0.6,1.7,0.9,2.8,0.9c1.3,0,2.4-0.2,3.5-0.6l0.4,2c-1.2,0.5-2.6,0.8-4.3,0.8c-2,0-3.5-0.6-4.7-1.8c-1.1-1.2-1.7-2.7-1.7-4.7
		c0-1.9,0.5-3.5,1.6-4.8c1.1-1.4,2.6-2.1,4.5-2.1c1.8,0,3.2,0.7,4.2,2.1C163.2,33.4,163.6,34.8,163.6,36.4z M160.8,35.6
		c0-0.8-0.2-1.6-0.6-2.2c-0.5-0.8-1.3-1.2-2.3-1.2c-0.9,0-1.7,0.4-2.3,1.2c-0.5,0.6-0.8,1.4-0.8,2.2L160.8,35.6z"/>
	<path class="st2" d="M60.8,19.3c-0.8,0-1.5,0-2-0.1v-8.6c0.8-0.1,1.6-0.2,2.4-0.2c3.3,0,4.8,1.6,4.8,4.2
		C66,17.7,64.2,19.3,60.8,19.3z M61.3,11.6c-0.4,0-0.8,0-1.1,0.1v6.5c0.2,0,0.5,0,0.9,0c2.1,0,3.4-1.2,3.4-3.5
		C64.5,12.7,63.4,11.6,61.3,11.6z M70.6,19.4c-1.8,0-3-1.4-3-3.2c0-1.9,1.2-3.3,3.1-3.3c1.8,0,3,1.3,3,3.2
		C73.8,18,72.5,19.4,70.6,19.4z M70.7,13.8c-1,0-1.7,0.9-1.7,2.3c0,1.3,0.7,2.2,1.6,2.2c1,0,1.6-1,1.6-2.3
		C72.3,14.8,71.7,13.8,70.7,13.8z M84.3,13l-2,6.3H81l-0.8-2.7c-0.2-0.7-0.4-1.3-0.5-2h0c-0.1,0.7-0.3,1.4-0.5,2l-0.9,2.7H77
		L75.2,13h1.4l0.7,3c0.2,0.7,0.3,1.4,0.4,2h0c0.1-0.5,0.3-1.2,0.5-2l0.9-3h1.1l0.9,2.9c0.2,0.7,0.4,1.4,0.5,2.1h0
		c0.1-0.6,0.2-1.3,0.4-2.1l0.8-2.9L84.3,13z M91.5,19.2h-1.4v-3.6c0-1.1-0.4-1.7-1.3-1.7c-0.8,0-1.4,0.7-1.4,1.5v3.7h-1.4v-4.5
		c0-0.6,0-1.2-0.1-1.8h1.2l0.1,1h0c0.4-0.7,1.1-1.1,2-1.1c1.3,0,2.2,1,2.2,2.7L91.5,19.2z M95.4,19.2H94v-9.2h1.4V19.2z M100.5,19.4
		c-1.8,0-3-1.4-3-3.2c0-1.9,1.2-3.3,3.1-3.3c1.8,0,3,1.3,3,3.2C103.6,18,102.4,19.4,100.5,19.4z M100.5,13.8c-1,0-1.7,0.9-1.7,2.3
		c0,1.3,0.7,2.2,1.6,2.2c1,0,1.6-1,1.6-2.3C102.2,14.8,101.5,13.8,100.5,13.8z M109.1,19.2l-0.1-0.7h0c-0.4,0.6-1.1,0.9-1.8,0.9
		c-1.1,0-1.9-0.8-1.9-1.9c0-1.6,1.3-2.4,3.7-2.4v-0.1c0-0.8-0.4-1.2-1.3-1.2c-0.6,0-1.2,0.2-1.6,0.5l-0.3-0.9
		c0.6-0.4,1.3-0.5,2.2-0.5c1.6,0,2.5,0.9,2.5,2.6v2.3c0,0.6,0,1.1,0.1,1.5L109.1,19.2z M108.9,16.1c-1.6,0-2.3,0.4-2.3,1.3
		c0,0.7,0.4,1,1,1c0.7,0,1.4-0.5,1.4-1.3V16.1z M117.1,19.2l-0.1-1h0c-0.4,0.8-1.1,1.2-2,1.2c-1.5,0-2.6-1.3-2.6-3.2
		c0-2,1.2-3.4,2.8-3.4c0.8,0,1.4,0.3,1.8,0.9h0v-3.6h1.4v7.5c0,0.6,0,1.2,0.1,1.7H117.1z M116.9,15.5c0-0.9-0.6-1.6-1.5-1.6
		c-1,0-1.7,0.9-1.7,2.2c0,1.3,0.7,2.1,1.6,2.1c0.9,0,1.5-0.8,1.5-1.7V15.5z M127.2,19.4c-1.8,0-3-1.4-3-3.2c0-1.9,1.2-3.3,3.1-3.3
		c1.8,0,3,1.3,3,3.2C130.3,18,129.1,19.4,127.2,19.4z M127.2,13.8c-1,0-1.7,0.9-1.7,2.3c0,1.3,0.7,2.2,1.6,2.2c1,0,1.6-1,1.6-2.3
		C128.9,14.8,128.2,13.8,127.2,13.8z M137.8,19.2h-1.4v-3.6c0-1.1-0.4-1.7-1.3-1.7c-0.8,0-1.4,0.7-1.4,1.5v3.7h-1.4v-4.5
		c0-0.6,0-1.2-0.1-1.8h1.2l0.1,1h0c0.4-0.7,1.1-1.1,2-1.1c1.3,0,2.2,1,2.2,2.7V19.2z M147.2,14h-1.5v3.1c0,0.8,0.3,1.2,0.8,1.2
		c0.2,0,0.5,0,0.6-0.1l0,1.1c-0.3,0.1-0.6,0.2-1.1,0.2c-1.1,0-1.8-0.6-1.8-2.2V14h-0.9v-1h0.9v-1.2l1.4-0.4V13h1.5V14z M154.7,19.2
		h-1.4v-3.6c0-1.1-0.4-1.7-1.3-1.7c-0.7,0-1.4,0.5-1.4,1.5v3.8h-1.4v-9.2h1.4v3.8h0c0.4-0.7,1.1-1,1.9-1c1.3,0,2.1,1,2.1,2.7V19.2z
		 M162.2,16.4H158c0,1.2,0.8,1.9,2,1.9c0.6,0,1.2-0.1,1.7-0.3l0.2,1c-0.6,0.3-1.3,0.4-2.1,0.4c-2,0-3.1-1.2-3.1-3.2
		c0-1.9,1.2-3.4,3-3.4c1.6,0,2.6,1.2,2.6,3C162.3,16,162.3,16.2,162.2,16.4z M161,15.4c0-1-0.5-1.7-1.4-1.7c-0.8,0-1.4,0.7-1.5,1.7
		H161z"/>
	<path class="st2" d="M40.7,27.7c0-4.3,3.5-6.4,3.7-6.5c-2-2.9-5.1-3.3-6.2-3.4c-2.6-0.3-5.2,1.6-6.5,1.6c-1.4,0-3.4-1.5-5.6-1.5
		c-2.9,0-5.5,1.7-7,4.3c-3,5.2-0.8,12.9,2.1,17.2c1.4,2.1,3.1,4.4,5.4,4.3c2.2-0.1,3-1.4,5.6-1.4c2.6,0,3.4,1.4,5.6,1.3
		c2.3,0,3.8-2.1,5.2-4.2c1.7-2.4,2.3-4.7,2.4-4.8C45.2,34.6,40.7,32.9,40.7,27.7z M36.4,15.1c1.2-1.5,2-3.4,1.7-5.5
		c-1.7,0.1-3.8,1.2-5,2.6c-1.1,1.3-2,3.3-1.8,5.3C33.3,17.6,35.2,16.5,36.4,15.1z"/>
</g>
</svg>
