<svg width="24" height="24" viewBox="0 0 24 24" fill="none" xmlns="http://www.w3.org/2000/svg">
<path opacity="0.2" d="M21.5 12C21.5 17.2467 17.2467 21.5 12 21.5C6.75329 21.5 2.5 17.2467 2.5 12C2.5 6.75329 6.75329 2.5 12 2.5C17.2467 2.5 21.5 6.75329 21.5 12Z" fill="#39B54A" stroke="#39B54A"/>
<path d="M10.2264 14.1237L10.58 14.4772L10.9336 14.1237L16.0736 8.98365C16.1683 8.88891 16.3317 8.88891 16.4264 8.98365C16.5212 9.07839 16.5212 9.24181 16.4264 9.33654L10.7564 15.0065C10.7091 15.0538 10.6459 15.0801 10.58 15.0801C10.5141 15.0801 10.4509 15.0538 10.4036 15.0065L7.57356 12.1765C7.47882 12.0818 7.47882 11.9184 7.57356 11.8237C7.66829 11.7289 7.83171 11.7289 7.92645 11.8237L10.2264 14.1237Z" fill="#39B54A" stroke="#39B54A"/>
</svg>
